<?xml version="1.0" encoding="UTF-8" standalone="no"?>
<!DOCTYPE svg PUBLIC "-//W3C//DTD SVG 1.1//EN" "http://www.w3.org/Graphics/SVG/1.1/DTD/svg11.dtd">
<svg xmlns="http://www.w3.org/2000/svg" xmlns:xlink="http://www.w3.org/1999/xlink" version="1.1" width="1920pt" height="1080pt" viewBox="0 0 1920 1080">
<g enable-background="new">
<g id="Layer-1" data-name="Layer 1">
<clipPath id="cp0">
<path transform="matrix(1,0,0,-1,0,1080)" d="M 0 1080 L 1920 1080 L 1920 0 L 0 0 Z "/>
</clipPath>
<g clip-path="url(#cp0)">
<path transform="matrix(1,0,0,-1,749.6519,574.58987)" d="M 0 0 C -14.816 16.232 -23.119 36.414 -22.779 55.373 C -22.237 85.605 -5.616 105.115 1.359 106.782 C 2.015 106.944 2.711 107.024 3.423 107.024 C 7.008 107.024 11.231 105.09 15.359 101.506 C 26.137 92.143 36.625 71.226 33.711 40.581 C 30.984 11.887 17.916 -.696 6.174 -6.183 C 4.014 -4.2 1.958 -2.137 0 0 M 17.155 -14.979 C 39.319 -1.457 45.153 24.138 46.602 39.359 C 48.075 54.912 46.456 70.02 41.925 83.048 C 37.83 94.806 31.583 104.564 23.847 111.281 C 15.577 118.458 6.522 121.339 -1.659 119.373 C -15.172 116.136 -35.079 91.561 -35.726 55.608 C -35.799 51.368 -35.516 47.079 -34.885 42.79 C -33.412 35.426 -31.834 29.495 -30.086 24.405 L -30.078 24.405 C -25.636 12.599 -18.668 1.246 -9.565 -8.724 C -8.958 -9.387 -8.343 -10.043 -7.728 -10.69 C -24.608 -14.469 -39.626 -12.3 -49.928 -9.46 C -64.307 -5.495 -77.384 1.909 -84.926 10.357 C -89.247 15.196 -90.388 19.04 -89.627 20.562 C -88.664 22.487 -83.234 26.501 -69.575 27.917 C -66.581 28.232 -63.45 28.387 -60.229 28.387 C -55.034 28.387 -49.588 27.99 -44.118 27.213 C -45.226 31.234 -46.173 35.677 -46.91 40.638 C -72.779 43.438 -95.316 38.137 -101.207 26.355 C -103.27 22.236 -105.147 13.562 -94.587 1.731 C -82.474 -11.831 -56.215 -25.644 -26.024 -25.636 C -16.443 -25.636 -6.458 -24.244 3.593 -21.007 C 23.143 -36.593 48.633 -46.797 78.347 -50.794 L 80.079 -37.96 C 55.455 -34.65 34.1 -26.81 17.155 -14.979 "/>
<path transform="matrix(1,0,0,-1,901.9736,593.49026)" d="M 0 0 L 0 32.848 C .353 40.383 -3.533 44.974 -9.184 44.855 C -14.952 44.738 -19.544 40.265 -19.661 32.729 L -19.661 0 L -35.908 0 L -35.908 32.729 C -35.791 40.383 -39.676 44.974 -45.681 44.855 C -51.685 44.738 -56.865 40.029 -56.865 32.377 L -56.865 0 L -73.229 0 L -73.229 39.44 C -73.229 44.974 -73.465 46.857 -78.646 46.857 L -78.646 56.864 C -71.229 58.984 -58.16 60.279 -58.16 48.977 C -55.099 55.452 -46.976 58.042 -39.912 58.042 C -30.022 58.042 -25.313 54.628 -22.605 47.682 C -19.19 54.628 -10.831 58.042 -2.943 58.042 C 13.186 58.042 16.954 46.622 16.601 32.848 L 16.601 0 Z "/>
<path transform="matrix(1,0,0,-1,964.9541,570.1797)" d="M 0 0 C -3.296 2.237 -7.652 3.297 -11.772 3.297 C -16.953 2.944 -21.191 0 -20.603 -5.533 C -20.25 -9.654 -16.6 -11.655 -12.833 -11.655 C -7.417 -11.655 -.589 -8.947 0 -2.943 Z M -16.129 -24.37 C -26.725 -24.37 -36.379 -17.542 -36.732 -6.593 C -37.321 7.3 -27.313 13.893 -14.716 13.893 C -9.654 13.893 -3.885 12.951 .354 10.243 L .354 14.128 C .354 21.074 -8.123 22.252 -13.774 22.252 C -19.778 22.252 -25.312 21.545 -30.139 18.837 L -32.258 30.611 C -26.253 33.436 -18.601 34.849 -10.948 34.849 C 3.65 34.849 16.13 30.022 16.13 13.657 L 16.13 -6.828 C 16.13 -11.655 16.012 -14.48 21.428 -14.128 L 21.545 -23.311 C 12.951 -25.194 3.532 -24.724 3.532 -14.599 C .118 -21.662 -8.83 -24.37 -16.129 -24.37 "/>
<path transform="matrix(1,0,0,-1,1029.8203,534.9775)" d="M 0 0 C 4.356 .118 8.83 -1.177 12.127 -3.649 L 8.477 -17.424 C 5.062 -15.188 1.53 -14.245 -2.119 -14.363 C -9.301 -14.363 -15.423 -19.072 -15.423 -27.784 L -15.423 -58.513 L -31.552 -58.513 L -31.552 -18.483 C -31.552 -13.774 -32.022 -10.713 -37.204 -11.537 L -37.204 -1.413 C -28.962 .471 -16.836 .471 -15.895 -9.653 C -13.539 -3.178 -6.946 0 0 0 "/>
<path transform="matrix(1,0,0,-1,1086.5645,550.9893)" d="M 0 0 C -3.179 .824 -6.476 1.178 -9.653 1.178 C -18.248 1.178 -23.547 -3.649 -23.899 -14.834 C -24.252 -30.021 -11.892 -34.26 0 -27.667 Z M .235 -41.206 C -21.663 -51.566 -40.264 -39.204 -40.264 -14.952 C -40.264 6.593 -25.43 15.07 -8.006 14.716 C .471 14.716 8.595 12.716 16.13 9.536 L 16.13 -45.327 C 16.13 -76.291 -13.186 -80.176 -36.262 -67.932 L -34.143 -55.216 C -20.956 -62.397 .235 -66.99 .235 -45.916 Z "/>
<path transform="matrix(1,0,0,-1,1143.0713,580.3047)" d="M 0 0 C 6.946 -.118 13.892 5.063 13.892 15.423 C 13.892 25.549 7.3 30.729 .354 30.729 C -6.593 30.729 -13.539 25.666 -13.539 15.423 C -13.539 5.181 -6.828 0 0 0 M .354 -14.363 C -14.716 -14.363 -29.904 -4.474 -29.904 15.423 C -29.904 35.085 -15.07 45.092 -.117 45.209 C 15.069 45.327 30.258 35.438 30.258 15.423 C 30.258 -4.474 15.305 -14.363 .354 -14.363 "/>
<path transform="matrix(1,0,0,-1,1225.127,593.49026)" d="M 0 0 L 0 32.848 C .353 40.618 -4.827 44.974 -10.714 44.974 C -16.953 44.974 -22.722 40.5 -22.722 32.494 L -22.722 0 L -39.205 0 L -39.205 39.205 C -39.205 44.855 -39.205 46.622 -44.621 46.622 L -44.621 56.864 C -37.085 58.16 -23.899 59.455 -23.899 49.212 C -20.721 55.805 -12.362 58.042 -5.769 58.042 C 10.243 58.042 16.601 46.976 16.601 32.848 L 16.601 0 Z "/>
<path transform="matrix(1,0,0,-1,0,1080)" d="M 1271.746 486.51 L 1255.263 486.51 L 1255.263 542.551 L 1271.746 542.551 Z M 1263.74 569.04 C 1268.449 568.922 1273.158 565.743 1273.158 559.621 C 1273.158 553.381 1268.566 550.203 1263.857 550.085 C 1258.913 549.968 1253.85 553.146 1253.85 559.621 C 1253.85 566.097 1258.795 569.158 1263.74 569.04 "/>
<path transform="matrix(1,0,0,-1,837.3057,510.7964)" d="M 0 0 C -1.062 .721 -2.467 1.062 -3.795 1.062 C -5.464 .948 -6.83 0 -6.641 -1.784 C -6.527 -3.112 -5.35 -3.757 -4.136 -3.757 C -2.391 -3.757 -.19 -2.884 0 -.948 Z M -5.198 -7.855 C -8.614 -7.855 -11.725 -5.653 -11.839 -2.125 C -12.028 2.352 -8.803 4.478 -4.743 4.478 C -3.112 4.478 -1.253 4.174 .114 3.3 L .114 4.553 C .114 6.792 -2.618 7.17 -4.44 7.17 C -6.375 7.17 -8.159 6.943 -9.714 6.071 L -10.396 9.865 C -8.462 10.776 -5.995 11.231 -3.529 11.231 C 1.176 11.231 5.198 9.676 5.198 4.402 L 5.198 -2.202 C 5.198 -3.757 5.16 -4.667 6.906 -4.553 L 6.943 -7.514 C 4.174 -8.121 1.138 -7.969 1.138 -4.705 C .038 -6.982 -2.846 -7.855 -5.198 -7.855 "/>
<path transform="matrix(1,0,0,-1,861.0581,500.62739)" d="M 0 0 L -7.968 -13.091 L 0 -13.091 L 0 -17.683 L -15.632 -17.683 L -15.632 -17.076 L -7.55 -3.795 L -15.063 -3.795 L -15.063 .607 L 0 .607 Z "/>
<path transform="matrix(1,0,0,-1,0,1080)" d="M 869.369 561.69 L 864.057 561.69 L 864.057 579.752 L 869.369 579.752 Z M 866.788 588.29 C 868.306 588.251 869.824 587.228 869.824 585.253 C 869.824 583.243 868.344 582.217 866.826 582.179 C 865.232 582.142 863.601 583.167 863.601 585.253 C 863.601 587.341 865.194 588.327 866.788 588.29 "/>
<path transform="matrix(1,0,0,-1,877.6396,506.8501)" d="M 0 0 L 8.044 0 C 8.158 2.39 6.223 3.224 4.25 3.224 C 2.239 3.224 .418 2.125 0 0 M 12.37 -3.415 L -.038 -3.415 C .152 -6.262 2.277 -7.362 4.819 -7.551 C 5.579 -7.589 6.451 -7.627 7.248 -7.513 C 8.879 -7.324 10.511 -6.906 11.611 -6.414 L 12.218 -10.284 C 10.056 -11.308 7.551 -11.915 5.123 -11.915 C -1.024 -12.029 -5.35 -8.272 -5.35 -2.087 C -5.236 4.287 -.607 7.285 4.25 7.285 C 10.928 7.285 13.774 2.807 12.37 -3.415 "/>
<path transform="matrix(1,0,0,-1,906.5537,518.3101)" d="M 0 0 L 0 10.586 C .114 13.091 -1.556 14.495 -3.453 14.495 C -5.464 14.495 -7.323 13.053 -7.323 10.472 L -7.323 0 L -12.636 0 L -12.636 12.636 C -12.636 14.457 -12.636 15.026 -14.381 15.026 L -14.381 18.327 C -11.952 18.745 -7.703 19.162 -7.703 15.862 C -6.678 17.986 -3.984 18.707 -1.859 18.707 C 3.301 18.707 5.35 15.14 5.35 10.586 L 5.35 0 Z "/>
<path transform="matrix(1,0,0,-1,927.6895,505.1812)" d="M 0 0 C -3.795 2.2 -7.817 .607 -7.817 -3.984 C -7.817 -6.602 -6.641 -8.879 -3.795 -8.879 C -1.48 -8.879 0 -6.943 0 -4.705 Z M .872 -10.055 C -.152 -12.332 -2.24 -13.546 -4.629 -13.584 C -10.169 -13.698 -13.091 -9.106 -13.091 -3.984 C -13.091 3.226 -6.527 7.627 -.152 4.478 L -.152 14.608 L 5.16 14.608 L 5.16 -7.057 C 5.16 -8.841 4.933 -9.827 6.867 -9.713 L 6.905 -13.167 C 4.249 -13.773 .986 -13.736 .872 -10.548 Z "/>
<path transform="matrix(1,0,0,-1,948.2163,510.7964)" d="M 0 0 C -1.062 .721 -2.465 1.062 -3.794 1.062 C -5.463 .948 -6.829 0 -6.639 -1.784 C -6.525 -3.112 -5.35 -3.757 -4.135 -3.757 C -2.39 -3.757 -.189 -2.884 0 -.948 Z M -5.198 -7.855 C -8.613 -7.855 -11.724 -5.653 -11.837 -2.125 C -12.027 2.352 -8.802 4.478 -4.742 4.478 C -3.111 4.478 -1.251 4.174 .115 3.3 L .115 4.553 C .115 6.792 -2.617 7.17 -4.438 7.17 C -6.374 7.17 -8.157 6.943 -9.713 6.071 L -10.396 9.865 C -8.461 10.776 -5.995 11.231 -3.528 11.231 C 1.177 11.231 5.199 9.676 5.199 4.402 L 5.199 -2.202 C 5.199 -3.757 5.161 -4.667 6.907 -4.553 L 6.945 -7.514 C 4.174 -8.121 1.139 -7.969 1.139 -4.705 C .039 -6.982 -2.845 -7.855 -5.198 -7.855 "/>
<path transform="matrix(1,0,0,-1,976.6377,510.7964)" d="M 0 0 C -1.062 .721 -2.467 1.062 -3.794 1.062 C -5.464 .948 -6.83 0 -6.641 -1.784 C -6.527 -3.112 -5.351 -3.757 -4.136 -3.757 C -2.391 -3.757 -.19 -2.884 0 -.948 Z M -5.198 -7.855 C -8.613 -7.855 -11.726 -5.653 -11.839 -2.125 C -12.028 2.352 -8.803 4.478 -4.743 4.478 C -3.111 4.478 -1.253 4.174 .113 3.3 L .113 4.553 C .113 6.792 -2.618 7.17 -4.44 7.17 C -6.375 7.17 -8.158 6.943 -9.714 6.071 L -10.396 9.865 C -8.462 10.776 -5.995 11.231 -3.529 11.231 C 1.176 11.231 5.197 9.676 5.197 4.402 L 5.197 -2.202 C 5.197 -3.757 5.16 -4.667 6.905 -4.553 L 6.943 -7.514 C 4.174 -8.121 1.139 -7.969 1.139 -4.705 C .037 -6.982 -2.846 -7.855 -5.198 -7.855 "/>
<path transform="matrix(1,0,0,-1,998.0752,504.61183)" d="M 0 0 C -1.023 .265 -2.086 .379 -3.11 .379 C -5.881 .379 -7.588 -1.176 -7.702 -4.781 C -7.815 -9.676 -3.831 -11.042 0 -8.917 Z M .076 -13.281 C -6.98 -16.619 -12.977 -12.636 -12.977 -4.819 C -12.977 2.125 -8.195 4.856 -2.579 4.743 C .152 4.743 2.771 4.098 5.198 3.074 L 5.198 -14.608 C 5.198 -24.587 -4.249 -25.839 -11.686 -21.893 L -11.003 -17.796 C -6.753 -20.11 .076 -21.589 .076 -14.798 Z "/>
<path transform="matrix(1,0,0,-1,1018.0342,499.45173)" d="M 0 0 C 1.404 .038 2.846 -.379 3.908 -1.176 L 2.732 -5.616 C 1.632 -4.895 .493 -4.591 -.683 -4.629 C -2.997 -4.629 -4.971 -6.146 -4.971 -8.955 L -4.971 -18.858 L -10.168 -18.858 L -10.168 -5.957 C -10.168 -4.439 -10.32 -3.454 -11.99 -3.719 L -11.99 -.455 C -9.334 .152 -5.426 .152 -5.122 -3.112 C -4.363 -1.024 -2.238 0 0 0 "/>
<path transform="matrix(1,0,0,-1,0,1080)" d="M 1029.152 561.69 L 1023.83999 561.69 L 1023.83999 579.752 L 1029.152 579.752 Z M 1026.573 588.29 C 1028.09 588.251 1029.608 587.228 1029.608 585.253 C 1029.608 583.243 1028.128 582.217 1026.611 582.179 C 1025.017 582.142 1023.385 583.167 1023.385 585.253 C 1023.385 587.341 1024.979 588.327 1026.573 588.29 "/>
<path transform="matrix(1,0,0,-1,1045.8096,506.62263)" d="M 0 0 C -.645 1.707 -2.201 2.542 -3.832 2.504 C -6.108 2.466 -8.461 .797 -8.461 -2.467 C -8.461 -5.769 -6.108 -7.513 -3.832 -7.513 C -2.163 -7.513 -.569 -6.603 .076 -4.667 L 5.123 -4.667 C 4.364 -9.562 .229 -12.029 -3.983 -12.067 C -8.803 -12.104 -13.735 -8.917 -13.735 -2.467 C -13.735 3.945 -8.765 7.171 -3.945 7.171 C .19 7.171 4.212 4.781 5.047 0 Z "/>
<path transform="matrix(1,0,0,-1,1062.1641,514.0601)" d="M 0 0 C 2.239 -.038 4.478 1.631 4.478 4.971 C 4.478 8.234 2.353 9.903 .114 9.903 C -2.125 9.903 -4.363 8.272 -4.363 4.971 C -4.363 1.669 -2.2 0 0 0 M .114 -4.629 C -4.742 -4.629 -9.638 -1.441 -9.638 4.971 C -9.638 11.307 -4.856 14.532 -.038 14.57 C 4.857 14.608 9.752 11.42 9.752 4.971 C 9.752 -1.441 4.933 -4.629 .114 -4.629 "/>
<path transform="matrix(1,0,0,-1,1079.8848,490.53474)" d="M 0 0 L 0 -20.831 C 0 -23.639 1.101 -24.208 3.642 -23.791 L 3.832 -27.775 C -1.821 -28.799 -5.236 -27.396 -5.236 -20.831 L -5.236 0 Z "/>
<path transform="matrix(1,0,0,-1,1096.1631,510.7964)" d="M 0 0 C -1.062 .721 -2.467 1.062 -3.795 1.062 C -5.464 .948 -6.83 0 -6.641 -1.784 C -6.527 -3.112 -5.351 -3.757 -4.137 -3.757 C -2.391 -3.757 -.19 -2.884 0 -.948 Z M -5.198 -7.855 C -8.614 -7.855 -11.726 -5.653 -11.839 -2.125 C -12.028 2.352 -8.804 4.478 -4.743 4.478 C -3.112 4.478 -1.252 4.174 .113 3.3 L .113 4.553 C .113 6.792 -2.618 7.17 -4.44 7.17 C -6.375 7.17 -8.159 6.943 -9.714 6.071 L -10.396 9.865 C -8.462 10.776 -5.995 11.231 -3.529 11.231 C 1.176 11.231 5.197 9.676 5.197 4.402 L 5.197 -2.202 C 5.197 -3.757 5.16 -4.667 6.904 -4.553 L 6.942 -7.514 C 4.174 -8.121 1.138 -7.969 1.138 -4.705 C .037 -6.982 -2.847 -7.855 -5.198 -7.855 "/>
</g>
</g>
</g>
</svg>
